<svg xmlns="http://www.w3.org/2000/svg" xmlns:xlink="http://www.w3.org/1999/xlink" version="1.1" id="Calque_1" x="0px" y="0px" viewBox="5.0 -10.0 100.0 135.0" enable-background="new 0 0 100 100" xml:space="preserve" height="100px" width="100px">
<g>
	<polygon points="43,27 57,27 50,16  "/>
	<polygon points="50,84 57,73 43,73  "/>
	<polygon points="27,57 27,43 16,50  "/>
	<polygon points="73,57 84,50 73,43  "/>
	<path d="M86,33H67V14c0-4.4-3.6-8-8-8H41c-4.4,0-8,3.6-8,8v19H14c-4.4,0-8,3.6-8,8v18c0,4.4,3.6,8,8,8h19v19c0,4.4,3.6,8,8,8h18   c4.4,0,8-3.6,8-8V67h19c4.4,0,8-3.6,8-8V41C94,36.6,90.4,33,86,33z M90,59c0,2.206-1.794,4-4,4H63v23c0,2.206-1.794,4-4,4H41   c-2.206,0-4-1.794-4-4V63H14c-2.206,0-4-1.794-4-4V41c0-2.206,1.794-4,4-4h23V14c0-2.206,1.794-4,4-4h18c2.206,0,4,1.794,4,4v23h23   c2.206,0,4,1.794,4,4V59z"/>
</g>
<text x="0.0" y="117.5" font-size="5.0" font-weight="bold" font-family="Helvetica Neue, Helvetica, Arial-Unicode, Arial, Sans-serif" fill="#000000">Created by Guillaume Berry</text><text x="0.0" y="122.5" font-size="5.0" font-weight="bold" font-family="Helvetica Neue, Helvetica, Arial-Unicode, Arial, Sans-serif" fill="#000000">from the Noun Project</text></svg>